
<svg width="54px" height="54px" viewBox="0 0 54 54" version="1.1" xmlns="http://www.w3.org/2000/svg" xmlns:xlink="http://www.w3.org/1999/xlink">
    <!-- Generator: Sketch 50.2 (55047) - http://www.bohemiancoding.com/sketch -->
    <desc>Created with Sketch.</desc>
    <defs></defs>
    <g id="Page-1" stroke="none" stroke-width="1" fill="none" fill-rule="evenodd">
        <g id="Group" transform="translate(2.000000, -3.000000)">
            <g id="logo-mobile" transform="translate(0.000000, 5.000000)">
                <rect id="Rectangle-6" stroke="#1C3ED3" stroke-width="4" x="0" y="0" width="50" height="50"></rect>
                <path d="M32.402,39.895 C31.9259976,39.3769974 31.688,38.7400038 31.688,37.984 C31.688,37.2279962 31.9329975,36.5840027 32.423,36.052 C32.9130025,35.5199973 33.4939966,35.254 34.166,35.254 C34.8660035,35.254 35.4469977,35.5199973 35.909,36.052 C36.3710023,36.5840027 36.602,37.2279962 36.602,37.984 C36.602,38.7400038 36.3570024,39.3769974 35.867,39.895 C35.3769975,40.4130026 34.7960034,40.672 34.124,40.672 C33.4519966,40.672 32.8780024,40.4130026 32.402,39.895 Z" id="." fill="#1C3ED3" fill-rule="nonzero"></path>
            </g>
            <text id="t" font-family="MuseoSansCyrl-500, Museo Sans Cyrl" font-size="50" font-weight="normal" letter-spacing="4.82758617" fill="#1C3ED3">
                <tspan x="9.36120691" y="47">t</tspan>
            </text>
        </g>
    </g>
</svg>